<mxfile host="app.diagrams.net" agent="Mozilla/5.0 (X11; Linux x86_64; rv:143.0) Gecko/20100101 Firefox/143.0" version="28.2.7">
  <diagram name="Page 1" id="Page-1">
    <mxGraphModel dx="777" dy="437" grid="1" gridSize="10" guides="1" tooltips="1" connect="1" arrows="1" fold="1" page="1" pageScale="1" pageWidth="827" pageHeight="1169" math="1" shadow="0">
      <root>
        <mxCell id="0" />
        <mxCell id="1" parent="0" />
        <mxCell id="hvBexpZkW_liIvI8zcMs-31" value="V&lt;sub&gt;C&lt;/sub&gt;" style="text;html=1;whiteSpace=wrap;strokeColor=none;fillColor=none;align=center;verticalAlign=middle;rounded=0;convertToSvg=1;" vertex="1" parent="1">
          <mxGeometry x="50" y="150" width="30" height="20" as="geometry" />
        </mxCell>
        <mxCell id="hvBexpZkW_liIvI8zcMs-30" value="t" style="text;html=1;whiteSpace=wrap;strokeColor=none;fillColor=none;align=center;verticalAlign=middle;rounded=0;convertToSvg=1;" vertex="1" parent="1">
          <mxGeometry x="308" y="280" width="22" height="20" as="geometry" />
        </mxCell>
        <mxCell id="hvBexpZkW_liIvI8zcMs-37" value="100 %" style="text;html=1;whiteSpace=wrap;strokeColor=none;fillColor=none;align=right;verticalAlign=middle;rounded=0;convertToSvg=1;" vertex="1" parent="1">
          <mxGeometry x="35" y="170" width="45" height="20" as="geometry" />
        </mxCell>
        <mxCell id="hvBexpZkW_liIvI8zcMs-38" value="63 %" style="text;html=1;whiteSpace=wrap;strokeColor=none;fillColor=none;align=right;verticalAlign=middle;rounded=0;convertToSvg=1;" vertex="1" parent="1">
          <mxGeometry x="35" y="200" width="45" height="30" as="geometry" />
        </mxCell>
        <mxCell id="hvBexpZkW_liIvI8zcMs-39" value="$$\tau$$" style="text;html=1;whiteSpace=wrap;strokeColor=none;fillColor=none;align=center;verticalAlign=middle;rounded=0;convertToSvg=0;" vertex="1" parent="1">
          <mxGeometry x="100" y="280" width="40" height="20" as="geometry" />
        </mxCell>
        <mxCell id="hvBexpZkW_liIvI8zcMs-40" value="$$5\tau$$" style="text;html=1;whiteSpace=wrap;strokeColor=none;fillColor=none;align=center;verticalAlign=middle;rounded=0;convertToSvg=0;" vertex="1" parent="1">
          <mxGeometry x="260" y="280" width="40" height="20" as="geometry" />
        </mxCell>
        <UserObject label="" tags="Ã‰lectrique Lien" id="28">
          <mxCell parent="1" vertex="1" visible="0">
            <mxGeometry as="geometry" />
          </mxCell>
        </UserObject>
        <mxCell id="hvBexpZkW_liIvI8zcMs-28" value="" style="endArrow=classic;html=1;rounded=0;endFill=1;" edge="1" parent="1">
          <mxGeometry width="50" height="50" relative="1" as="geometry">
            <mxPoint x="80" y="280" as="sourcePoint" />
            <mxPoint x="80" y="160" as="targetPoint" />
          </mxGeometry>
        </mxCell>
        <mxCell id="hvBexpZkW_liIvI8zcMs-29" value="" style="endArrow=classic;html=1;rounded=0;endFill=1;" edge="1" parent="1">
          <mxGeometry width="50" height="50" relative="1" as="geometry">
            <mxPoint x="80" y="280" as="sourcePoint" />
            <mxPoint x="320" y="280" as="targetPoint" />
          </mxGeometry>
        </mxCell>
        <mxCell id="hvBexpZkW_liIvI8zcMs-32" value="" style="curved=1;endArrow=none;html=1;rounded=0;endFill=0;" edge="1" parent="1">
          <mxGeometry width="50" height="50" relative="1" as="geometry">
            <mxPoint x="80" y="280" as="sourcePoint" />
            <mxPoint x="300" y="180" as="targetPoint" />
            <Array as="points">
              <mxPoint x="100" y="220" />
              <mxPoint x="190" y="180" />
            </Array>
          </mxGeometry>
        </mxCell>
        <mxCell id="hvBexpZkW_liIvI8zcMs-33" value="" style="endArrow=none;html=1;rounded=0;dashed=1;" edge="1" parent="1">
          <mxGeometry width="50" height="50" relative="1" as="geometry">
            <mxPoint x="120" y="280" as="sourcePoint" />
            <mxPoint x="120" y="216" as="targetPoint" />
          </mxGeometry>
        </mxCell>
        <mxCell id="hvBexpZkW_liIvI8zcMs-34" value="" style="endArrow=none;html=1;rounded=0;dashed=1;" edge="1" parent="1">
          <mxGeometry width="50" height="50" relative="1" as="geometry">
            <mxPoint x="80" y="216" as="sourcePoint" />
            <mxPoint x="120" y="216" as="targetPoint" />
          </mxGeometry>
        </mxCell>
        <mxCell id="hvBexpZkW_liIvI8zcMs-35" value="" style="endArrow=none;html=1;rounded=0;dashed=1;" edge="1" parent="1">
          <mxGeometry width="50" height="50" relative="1" as="geometry">
            <mxPoint x="280" y="280" as="sourcePoint" />
            <mxPoint x="280" y="180" as="targetPoint" />
          </mxGeometry>
        </mxCell>
        <mxCell id="hvBexpZkW_liIvI8zcMs-36" value="" style="endArrow=none;html=1;rounded=0;dashed=1;" edge="1" parent="1">
          <mxGeometry width="50" height="50" relative="1" as="geometry">
            <mxPoint x="80" y="180" as="sourcePoint" />
            <mxPoint x="280" y="180" as="targetPoint" />
          </mxGeometry>
        </mxCell>
        <mxCell id="hvBexpZkW_liIvI8zcMs-41" value="V&lt;sub&gt;C&lt;/sub&gt;" style="text;html=1;whiteSpace=wrap;strokeColor=none;fillColor=none;align=center;verticalAlign=middle;rounded=0;convertToSvg=1;" vertex="1" parent="1">
          <mxGeometry x="370" y="150" width="30" height="20" as="geometry" />
        </mxCell>
        <mxCell id="hvBexpZkW_liIvI8zcMs-42" value="t" style="text;html=1;whiteSpace=wrap;strokeColor=none;fillColor=none;align=center;verticalAlign=middle;rounded=0;convertToSvg=1;" vertex="1" parent="1">
          <mxGeometry x="628" y="280" width="22" height="20" as="geometry" />
        </mxCell>
        <mxCell id="hvBexpZkW_liIvI8zcMs-43" value="100 %" style="text;html=1;whiteSpace=wrap;strokeColor=none;fillColor=none;align=right;verticalAlign=middle;rounded=0;convertToSvg=1;" vertex="1" parent="1">
          <mxGeometry x="355" y="170" width="45" height="20" as="geometry" />
        </mxCell>
        <mxCell id="hvBexpZkW_liIvI8zcMs-44" value="37 %" style="text;html=1;whiteSpace=wrap;strokeColor=none;fillColor=none;align=right;verticalAlign=middle;rounded=0;convertToSvg=1;" vertex="1" parent="1">
          <mxGeometry x="355" y="230" width="45" height="30" as="geometry" />
        </mxCell>
        <mxCell id="hvBexpZkW_liIvI8zcMs-45" value="$$\tau$$" style="text;html=1;whiteSpace=wrap;strokeColor=none;fillColor=none;align=center;verticalAlign=middle;rounded=0;convertToSvg=0;" vertex="1" parent="1">
          <mxGeometry x="420" y="280" width="40" height="20" as="geometry" />
        </mxCell>
        <mxCell id="hvBexpZkW_liIvI8zcMs-46" value="$$5\tau$$" style="text;html=1;whiteSpace=wrap;strokeColor=none;fillColor=none;align=center;verticalAlign=middle;rounded=0;convertToSvg=0;" vertex="1" parent="1">
          <mxGeometry x="580" y="280" width="40" height="20" as="geometry" />
        </mxCell>
        <mxCell id="hvBexpZkW_liIvI8zcMs-47" value="" style="endArrow=classic;html=1;rounded=0;endFill=1;" edge="1" parent="1">
          <mxGeometry width="50" height="50" relative="1" as="geometry">
            <mxPoint x="400" y="280" as="sourcePoint" />
            <mxPoint x="400" y="160" as="targetPoint" />
          </mxGeometry>
        </mxCell>
        <mxCell id="hvBexpZkW_liIvI8zcMs-48" value="" style="endArrow=classic;html=1;rounded=0;endFill=1;" edge="1" parent="1">
          <mxGeometry width="50" height="50" relative="1" as="geometry">
            <mxPoint x="400" y="280" as="sourcePoint" />
            <mxPoint x="640" y="280" as="targetPoint" />
          </mxGeometry>
        </mxCell>
        <mxCell id="hvBexpZkW_liIvI8zcMs-49" value="" style="curved=1;endArrow=none;html=1;rounded=0;endFill=0;" edge="1" parent="1">
          <mxGeometry width="50" height="50" relative="1" as="geometry">
            <mxPoint x="620" y="280" as="sourcePoint" />
            <mxPoint x="400" y="180" as="targetPoint" />
            <Array as="points">
              <mxPoint x="510" y="280" />
              <mxPoint x="420" y="240" />
            </Array>
          </mxGeometry>
        </mxCell>
        <mxCell id="hvBexpZkW_liIvI8zcMs-50" value="" style="endArrow=none;html=1;rounded=0;dashed=1;" edge="1" parent="1">
          <mxGeometry width="50" height="50" relative="1" as="geometry">
            <mxPoint x="440" y="280" as="sourcePoint" />
            <mxPoint x="440" y="244" as="targetPoint" />
          </mxGeometry>
        </mxCell>
        <mxCell id="hvBexpZkW_liIvI8zcMs-51" value="" style="endArrow=none;html=1;rounded=0;dashed=1;" edge="1" parent="1">
          <mxGeometry width="50" height="50" relative="1" as="geometry">
            <mxPoint x="400" y="244" as="sourcePoint" />
            <mxPoint x="440" y="244" as="targetPoint" />
          </mxGeometry>
        </mxCell>
      </root>
    </mxGraphModel>
  </diagram>
</mxfile>
